<svg id="b2f8363c-f180-4eac-8748-f5ff057358a3" data-name="Layer 1" xmlns="http://www.w3.org/2000/svg" viewBox="0 0 196.12 82.82"><title>GrupoAcert_LogoMenu</title><path d="M210.21,435.32l-2.39-7.18c-.34-1-.74-2.23-1-2.77h-.11c-.11.22-.57,1.27-1.05,2.6l-2.79,7.66-1.43,3.88-1.53,4.62a17.11,17.11,0,0,0-1,3.66c0,.54.23.79,1.28.88l1.45.14a.71.71,0,0,1-.08,1.11c-1.14-.09-2.51-.09-4.61-.15-1.46,0-3,.09-4.25.15a.86.86,0,0,1-.08-1.11l1.45-.14a3,3,0,0,0,2.68-2.16c.79-2,2-4.87,3.9-9.8l4.49-11.91c.63-1.59.89-2.44.77-3.15a4.52,4.52,0,0,0,2.28-1.67.62.62,0,0,1,.65.4c.6,1.95,1.31,4,2,5.92L216.9,444c1.28,3.77,1.85,4.45,3.76,4.65l1.2.14a.87.87,0,0,1,0,1.11c-1.83-.09-3.36-.15-5.36-.15s-3.81.09-5.09.15a.76.76,0,0,1-.09-1.11l1.28-.14c.94-.09,1.57-.34,1.57-.8a8.84,8.84,0,0,0-.6-2.32l-1.93-6Z" transform="translate(-136.5 -379.55)" style="fill:#4e4e4f;fill-rule:evenodd"/><path d="M228.18,423.75A19.1,19.1,0,0,1,240.13,420a34.41,34.41,0,0,1,7.83,1.08,3,3,0,0,0,1.25.17c0,1,.26,3.8.6,6.49a.94.94,0,0,1-1.17.08c-.68-3-2.67-6.43-9.08-6.43-6.77,0-12.52,4.25-12.52,13.38s5.89,14.37,13.15,14.37a9.43,9.43,0,0,0,9.25-6.29.91.91,0,0,1,1.14.17,16.14,16.14,0,0,1-2.14,6,8.88,8.88,0,0,0-1.53.42,25.43,25.43,0,0,1-7,1,19.44,19.44,0,0,1-11-3,14.19,14.19,0,0,1-6.29-12.1,14.59,14.59,0,0,1,5.58-11.68Z" transform="translate(-136.5 -379.55)" style="fill:#4e4e4f;fill-rule:evenodd"/><path d="M257.13,427.32c0-4.59-.09-5.24-2.71-5.55l-.71-.12c-.25-.17-.17-1,.12-1.07,1.87.08,3.38.11,5.2.11h8.32c2.82,0,5.43,0,6-.11a50.32,50.32,0,0,1,.71,5.84.88.88,0,0,1-1.11.11c-.66-2.07-1.06-3.63-3.36-4.2a21.55,21.55,0,0,0-4.3-.25h-3.19c-1.31,0-1.31.08-1.31,1.76v8.81c0,1.22.12,1.22,1.45,1.22h2.57a17.17,17.17,0,0,0,3.75-.25c.54-.2.83-.46,1.06-1.56l.37-1.79a.85.85,0,0,1,1.14,0c0,1.08-.18,2.78-.18,4.45s.18,3.26.18,4.25a.89.89,0,0,1-1.14,0l-.4-1.7c-.2-.79-.49-1.47-1.37-1.7a15.66,15.66,0,0,0-3.41-.2h-2.57c-1.33,0-1.45,0-1.45,1.19v6.21c0,2.32.12,3.83.83,4.56.54.54,1.45,1,5.35,1,3.42,0,4.7-.17,5.66-.65.8-.45,2-2,3.16-4.28a.8.8,0,0,1,1.09.31,35,35,0,0,1-2,6.13c-3.95-.09-7.91-.15-11.84-.15h-4c-1.9,0-3.41.06-6,.15a.89.89,0,0,1-.09-1.11l1.48-.14c2.51-.2,2.74-.88,2.74-5.5Z" transform="translate(-136.5 -379.55)" style="fill:#4e4e4f;fill-rule:evenodd"/><path d="M286.59,433.67a3.39,3.39,0,0,0,.14,1.45c.15.11.8.2,3,.2a7.55,7.55,0,0,0,4.58-1.14c1.17-.93,2.2-2.46,2.2-5.47,0-3.48-2.17-6.77-7.09-6.77-2.74,0-2.88.17-2.88,1.41ZM283,427.35c0-4.19-.15-4.93-2-5.16l-1.39-.17a.73.73,0,0,1,0-1.1c2.47-.23,5.55-.34,9.87-.34,2.74,0,5.36.22,7.41,1.3a6.62,6.62,0,0,1,3.67,6.18c0,4.2-3.33,6.46-5.55,7.37-.23.26,0,.68.22,1.05,3.53,5.7,5.9,9.21,8.92,11.73a5.19,5.19,0,0,0,3,1.22.37.37,0,0,1,0,.63,8.08,8.08,0,0,1-1.94.2c-3.75,0-6-1.08-9.16-5.53-1.14-1.65-3-4.68-4.33-6.66-.65-1-1.37-1.42-3.16-1.42-2,0-2.08.06-2.08,1v5.56c0,4.65.12,5.16,2.68,5.5l.91.14a.86.86,0,0,1-.09,1.11c-2-.09-3.5-.15-5.26-.15s-3.45.06-5.53.15a.82.82,0,0,1-.08-1.11l1.11-.14c2.56-.29,2.65-.85,2.65-5.5Z" transform="translate(-136.5 -379.55)" style="fill:#4e4e4f;fill-rule:evenodd"/><path d="M320.16,443.17c0,4.62.08,5.3,2.64,5.5l1.43.14a.9.9,0,0,1-.09,1.11c-2.53-.09-4-.15-5.81-.15s-3.33.06-6.15.15a.78.78,0,0,1,0-1.11l1.6-.14c2.5-.2,2.73-.88,2.73-5.5v-19.7c0-1.36,0-1.39-1.31-1.39h-2.45c-1.9,0-4.32.08-5.43,1.08a7.93,7.93,0,0,0-2,3.06.86.86,0,0,1-1.13-.31,47.59,47.59,0,0,0,1.65-6.58c.14-.09.74-.14.85,0,.26,1.42,1.74,1.36,3.76,1.36h17.93c2.39,0,2.79-.09,3.45-1.22.23-.08.71-.06.79.11a26.67,26.67,0,0,0-.65,6.72c-.17.34-.94.34-1.17.09-.11-1.11-.42-2.72-1.11-3.23-1-.74-2.67-1.08-5.12-1.08h-3.13c-1.34,0-1.28,0-1.28,1.47Z" transform="translate(-136.5 -379.55)" style="fill:#4e4e4f;fill-rule:evenodd"/><path d="M206.06,413c0,.85.14,1.33.51,1.47a.21.21,0,0,1,0,.26,4.28,4.28,0,0,0-1,.2,17.12,17.12,0,0,1-3.73.53,8.73,8.73,0,0,1-6.41-2.32,6.57,6.57,0,0,1-1.94-4.73,7.24,7.24,0,0,1,1.88-5A8.85,8.85,0,0,1,202,401a14,14,0,0,1,2.64.31,5.72,5.72,0,0,0,1.31.2,22.12,22.12,0,0,0,.32,3c-.06.17-.43.2-.57.06-.57-2.27-2.17-2.95-4.27-2.95-4.1,0-5.87,2.86-5.87,6,0,4,2.08,7.14,6.29,7.14,1.28,0,2.08-.28,2.31-.62a2.25,2.25,0,0,0,.2-1.19v-.82c0-1.76-.06-1.9-1.34-2.05l-.94-.11c-.17-.08-.14-.45,0-.51.6.06,1.77.06,3,.06.83,0,1.54,0,2.22-.06a.36.36,0,0,1,0,.51l-.34.06c-.89.11-.91.68-.91,1.76Z" transform="translate(-136.5 -379.55)" style="fill:#4e4e4f;fill-rule:evenodd"/><path d="M212.55,407.51a2,2,0,0,0,0,.68,4,4,0,0,0,1.46.11,3.38,3.38,0,0,0,2.16-.56,3,3,0,0,0,1.05-2.58,3.08,3.08,0,0,0-3.36-3.21c-1.31,0-1.36.09-1.36.65Zm-1.71-3c0-2-.09-2.32-.94-2.43l-.66-.09a.36.36,0,0,1,0-.51c1.2-.11,2.65-.17,4.7-.17a7.64,7.64,0,0,1,3.5.62,3.16,3.16,0,0,1,1.74,2.92,3.85,3.85,0,0,1-2.65,3.49c-.08.11,0,.34.12.51,1.68,2.69,2.79,4.37,4.21,5.56a2.41,2.41,0,0,0,1.45.56.17.17,0,0,1,0,.29,2.66,2.66,0,0,1-.91.11c-1.79,0-2.88-.51-4.36-2.61-.54-.79-1.39-2.24-2-3.17a1.48,1.48,0,0,0-1.48-.65c-.94,0-1,0-1,.45V412c0,2.18,0,2.43,1.25,2.6l.46.06a.44.44,0,0,1-.06.54c-.94-.06-1.65-.09-2.48-.09s-1.65,0-2.62.09a.42.42,0,0,1,0-.54l.54-.06c1.19-.17,1.25-.42,1.25-2.6Z" transform="translate(-136.5 -379.55)" style="fill:#4e4e4f;fill-rule:evenodd"/><path d="M233.84,406.6a15.48,15.48,0,0,0-.4-4.31,1.44,1.44,0,0,0-1.05-.45l-.54,0a.37.37,0,0,1,.06-.51c.79,0,1.56.06,2.39.06s1.45,0,2.19-.06c.17.11.14.37.06.51l-.52,0c-.54.06-.94.23-1.05.51a18.72,18.72,0,0,0-.29,4.25V409a7.25,7.25,0,0,1-1.48,5,5.44,5.44,0,0,1-4,1.53,5.83,5.83,0,0,1-3.93-1.16c-1.11-.91-1.65-2.44-1.65-4.9v-4.93c0-2.19,0-2.53-1.25-2.64l-.52,0c-.14-.08-.08-.45,0-.51,1.06,0,1.77.06,2.62.06s1.54,0,2.56-.06c.15.06.17.43.06.51l-.51,0c-1.23.11-1.25.45-1.25,2.64V409c0,3.35,1.05,5.56,4.24,5.56,3,0,4.21-2.35,4.21-5.53Z" transform="translate(-136.5 -379.55)" style="fill:#4e4e4f;fill-rule:evenodd"/><path d="M241.19,412c0,2.18,0,2.43,1.39,2.6l.54.06a.42.42,0,0,1,0,.54c-1.19-.06-1.88-.09-2.73-.09s-1.62,0-2.56.09a.47.47,0,0,1,0-.54l.43-.06c1.22-.17,1.28-.42,1.28-2.6v-7.71c0-1.79-.06-2.13-1-2.24l-.74-.09a.32.32,0,0,1,0-.51,34.48,34.48,0,0,1,4.16-.17,7.69,7.69,0,0,1,4,.82,3.64,3.64,0,0,1,1.68,3.15,3.51,3.51,0,0,1-2.11,3.32,7.29,7.29,0,0,1-2.87.62.26.26,0,0,1,0-.43c2.28-.39,3.07-1.67,3.07-3.48a3.08,3.08,0,0,0-3.36-3.35c-1.11,0-1.13.09-1.13.74Z" transform="translate(-136.5 -379.55)" style="fill:#4e4e4f;fill-rule:evenodd"/><path d="M261.91,408.84c0-3.46-1.54-7.17-5.55-7.17-2.16,0-5,1.5-5,6.07,0,3.09,1.51,7.08,5.64,7.08,2.5,0,4.92-1.87,4.92-6Zm-12.67-.45A7.24,7.24,0,0,1,256.7,401a6.88,6.88,0,0,1,7.29,7.17,7.13,7.13,0,0,1-7.29,7.28c-4.64,0-7.46-3.31-7.46-7.08Z" transform="translate(-136.5 -379.55)" style="fill:#4e4e4f;fill-rule:evenodd"/><path d="M197.83,444.22s5.52-7.63,18-12.19l1.2,3.32s-7.69.68-19.16,8.87Z" transform="translate(-136.5 -379.55)" style="fill:#0b4b7f;fill-rule:evenodd"/><path d="M181.32,456.66c.37-1.87.77-3.85,1.25-5.92v-1.39c-.63,2.58-1.11,5-1.57,7.25q-.58,3-1.19,5.62h.31c.4-1.76.8-3.6,1.2-5.56Z" transform="translate(-136.5 -379.55)" style="fill:#0a4e7b;stroke:#0b4b7f;stroke-miterlimit:10;stroke-width:0.30000000000000004px;fill-rule:evenodd"/><path d="M182.57,441.33c-1.51,5-2.48,9.32-3.33,13.26-.6,2.78-1.14,5.27-1.79,7.63h.31c.65-2.33,1.19-4.82,1.79-7.54.8-3.69,1.68-7.71,3-12.28Z" transform="translate(-136.5 -379.55)" style="fill:#0a4e7b;stroke:#0b4b7f;stroke-miterlimit:10;stroke-width:0.30000000000000004px;fill-rule:evenodd"/><path d="M182.57,434.55a158.11,158.11,0,0,0-5,18c-.85,3.6-1.59,6.78-2.56,9.67h.34c.94-2.87,1.68-6,2.51-9.58a161.31,161.31,0,0,1,4.75-17.12Z" transform="translate(-136.5 -379.55)" style="fill:#0a4e7b;stroke:#0b4b7f;stroke-miterlimit:10;stroke-width:0.30000000000000004px;fill-rule:evenodd"/><path d="M182.57,428.85v-.22c-.6,1.41-1.17,2.83-1.65,4.25-2.42,6.86-3.84,12.56-5.1,17.57a85.83,85.83,0,0,1-3.47,11.77h.34a90.23,90.23,0,0,0,3.45-11.68A179.76,179.76,0,0,1,181.2,433c.43-1.19.89-2.35,1.37-3.54Z" transform="translate(-136.5 -379.55)" style="fill:#0a4e7b;stroke:#0b4b7f;stroke-miterlimit:10;stroke-width:0.30000000000000004px;fill-rule:evenodd"/><path d="M182.57,424.12v-.71c-.37.71-.71,1.45-1,2.21-.86,1.87-1.63,3.8-2.31,5.73-2.33,6.6-3.79,12.07-5,16.92-1.45,5.53-2.65,10-4.58,14h.34c1.94-3.94,3.1-8.45,4.56-13.86,1.25-4.85,2.7-10.32,5-16.9.68-1.93,1.45-3.85,2.3-5.72l.77-1.62Z" transform="translate(-136.5 -379.55)" style="fill:#0a4e7b;stroke:#0b4b7f;stroke-miterlimit:10;stroke-width:0.30000000000000004px;fill-rule:evenodd"/><path d="M182.57,418.59c-.94,1.67-1.85,3.49-2.76,5.53-.86,1.87-1.62,3.77-2.31,5.7-2.19,6.26-3.67,11.53-4.95,16.18-1.82,6.64-3.27,11.8-6,16.22h.4c2.62-4.4,4.07-9.56,5.89-16.13,1.28-4.65,2.74-9.89,4.93-16.16.68-1.93,1.45-3.83,2.28-5.7s1.67-3.46,2.5-5Z" transform="translate(-136.5 -379.55)" style="fill:#0a4e7b;stroke:#0b4b7f;stroke-miterlimit:10;stroke-width:0.30000000000000004px;fill-rule:evenodd"/><path d="M181.63,415.7c-1.17,2-2.36,4.31-3.56,6.92-.82,1.84-1.59,3.77-2.25,5.67-2.1,5.89-3.56,10.91-4.84,15.36q-1,3.41-1.88,6.35v1c.72-2.24,1.43-4.65,2.2-7.31,1.28-4.42,2.73-9.41,4.81-15.31a57.35,57.35,0,0,1,2.28-5.67,65.46,65.46,0,0,1,3.5-6.8c-.09-.09-.17-.14-.26-.23Z" transform="translate(-136.5 -379.55)" style="fill:#0a4e7b;stroke:#0b4b7f;stroke-miterlimit:10;stroke-width:0.30000000000000004px;fill-rule:evenodd"/><path d="M167.6,455.16a1.43,1.43,0,0,1-.37.06,31,31,0,0,1-3.85,7h.4a32.53,32.53,0,0,0,3.82-7.06Z" transform="translate(-136.5 -379.55)" style="fill:#0a4e7b;stroke:#0b4b7f;stroke-miterlimit:10;stroke-width:0.30000000000000004px;fill-rule:evenodd"/><path d="M164.89,455.22h-.37a27,27,0,0,1-4.64,7h.43a27.56,27.56,0,0,0,4.58-7Z" transform="translate(-136.5 -379.55)" style="fill:#0a4e7b;stroke:#0b4b7f;stroke-miterlimit:10;stroke-width:0.30000000000000004px;fill-rule:evenodd"/><path d="M176.36,421.09c-.82,1.87-1.59,3.77-2.24,5.67-1.94,5.5-3.39,10.23-4.64,14.4-.12.42-.26.85-.38,1.27v1.08c.2-.74.43-1.48.66-2.27,1.28-4.17,2.7-8.87,4.64-14.37.65-1.9,1.42-3.8,2.25-5.64,1-2.18,2-4.17,3-5.9h-.37c-.94,1.7-1.91,3.63-2.91,5.76Z" transform="translate(-136.5 -379.55)" style="fill:#0a4e7b;stroke:#0b4b7f;stroke-miterlimit:10;stroke-width:0.30000000000000004px;fill-rule:evenodd"/><path d="M172.69,425.34c.69-1.9,1.43-3.77,2.25-5.61.74-1.59,1.45-3.07,2.16-4.4h-.34c-.71,1.31-1.39,2.72-2.1,4.25-.83,1.85-1.6,3.75-2.25,5.65-1.31,3.68-2.39,7-3.36,10.06a1.75,1.75,0,0,1,0,.4v.53c1-3.26,2.17-6.88,3.59-10.88Z" transform="translate(-136.5 -379.55)" style="fill:#0a4e7b;stroke:#0b4b7f;stroke-miterlimit:10;stroke-width:0.30000000000000004px;fill-rule:evenodd"/><path d="M182.57,406.52a38,38,0,0,0-3.59,4.87h.4a37.29,37.29,0,0,1,3.19-4.39Z" transform="translate(-136.5 -379.55)" style="fill:#0a4e7b;stroke:#0b4b7f;stroke-miterlimit:10;stroke-width:0.30000000000000004px;fill-rule:evenodd"/><path d="M157.21,461.45a26.79,26.79,0,0,0,4.78-6.23h-.37a26.36,26.36,0,0,1-4.61,6c-.35.34-.72.65-1.09,1h.49c.25-.26.54-.51.8-.77Z" transform="translate(-136.5 -379.55)" style="fill:#0a4e7b;stroke:#0b4b7f;stroke-miterlimit:10;stroke-width:0.30000000000000004px;fill-rule:evenodd"/><path d="M173.23,418.22c.46-1,.91-2,1.37-2.89h-.34c-.43.88-.88,1.79-1.31,2.75-.83,1.84-1.57,3.72-2.25,5.61-1.28,3.69-2.39,7-3.39,10.07a1,1,0,0,1,.31,0c1-3,2.08-6.35,3.36-10,.69-1.9,1.43-3.77,2.25-5.59Z" transform="translate(-136.5 -379.55)" style="fill:#0a4e7b;stroke:#0b4b7f;stroke-miterlimit:10;stroke-width:0.30000000000000004px;fill-rule:evenodd"/><path d="M158.91,455.22h-.37a25.12,25.12,0,0,1-3.36,4,35.77,35.77,0,0,1-3.64,3H152a28.43,28.43,0,0,0,6.91-7Z" transform="translate(-136.5 -379.55)" style="fill:#0a4e7b;stroke:#0b4b7f;stroke-miterlimit:10;stroke-width:0.30000000000000004px;fill-rule:evenodd"/><path d="M182.57,403.17a39.23,39.23,0,0,0-6.21,8.22h.37a38.59,38.59,0,0,1,5.84-7.76Z" transform="translate(-136.5 -379.55)" style="fill:#0a4e7b;stroke:#0b4b7f;stroke-miterlimit:10;stroke-width:0.30000000000000004px;fill-rule:evenodd"/><path d="M171.52,416.72c.2-.48.43-.93.66-1.39h-.37c-.2.4-.37.82-.57,1.28-.83,1.78-1.57,3.68-2.25,5.55-.06.2-.14.43-.2.66a1.73,1.73,0,0,1,.14.42,9.46,9.46,0,0,0,.37-1c.66-1.9,1.4-3.74,2.22-5.56Z" transform="translate(-136.5 -379.55)" style="fill:#0a4e7b;stroke:#0b4b7f;stroke-miterlimit:10;stroke-width:0.30000000000000004px;fill-rule:evenodd"/><path d="M165.69,432.88c.63-1.93,1.31-4,2.08-6.18h-.34c-.74,2.15-1.4,4.19-2,6.07-.11.34-.22.65-.31,1h.31c.09-.28.2-.57.29-.85Z" transform="translate(-136.5 -379.55)" style="fill:#0a4e7b;stroke:#0b4b7f;stroke-miterlimit:10;stroke-width:0.30000000000000004px;fill-rule:evenodd"/><path d="M182.57,400.17c-2.9,2.32-5.84,5.86-8.77,11.22h.37c2.82-5.1,5.61-8.53,8.4-10.83Z" transform="translate(-136.5 -379.55)" style="fill:#0a4e7b;stroke:#0b4b7f;stroke-miterlimit:10;stroke-width:0.30000000000000004px;fill-rule:evenodd"/><path d="M155.58,455.22h-.42a32.79,32.79,0,0,1-8.72,7h.66a32,32,0,0,0,8.48-7Z" transform="translate(-136.5 -379.55)" style="fill:#0a4e7b;stroke:#0b4b7f;stroke-miterlimit:10;stroke-width:0.30000000000000004px;fill-rule:evenodd"/><path d="M169.42,415.33c-.77,1.73-1.48,3.52-2.11,5.3-.11.34-.25.68-.37,1a1,1,0,0,1,.31,0c.12-.31.23-.62.35-1,.65-1.82,1.36-3.63,2.16-5.39Z" transform="translate(-136.5 -379.55)" style="fill:#0a4e7b;stroke:#0b4b7f;stroke-miterlimit:10;stroke-width:0.30000000000000004px;fill-rule:evenodd"/><path d="M164.52,429.65c.31-.94.66-1.93,1-2.95h-.32c-.34,1-.65,1.93-1,2.83-.52,1.48-1,2.87-1.45,4.2h.34c.45-1.3.91-2.67,1.39-4.08Z" transform="translate(-136.5 -379.55)" style="fill:#0a4e7b;stroke:#0b4b7f;stroke-miterlimit:10;stroke-width:0.30000000000000004px;fill-rule:evenodd"/><path d="M182.57,397.42c-3.73,2.41-7.49,6.63-11.27,14h.34c3.67-7.08,7.34-11.19,10.93-13.58Z" transform="translate(-136.5 -379.55)" style="fill:#0a4e7b;stroke:#0b4b7f;stroke-miterlimit:10;stroke-width:0.30000000000000004px;fill-rule:evenodd"/><path d="M151.94,455.22a2,2,0,0,1-.4-.12,39,39,0,0,1-10.82,7.12h.74a39.67,39.67,0,0,0,10.48-7Z" transform="translate(-136.5 -379.55)" style="fill:#0a4e7b;stroke:#0b4b7f;stroke-miterlimit:10;stroke-width:0.30000000000000004px;fill-rule:evenodd"/><path d="M165.6,419.1c-.31.88-.59,1.7-.88,2.55H165c.29-.79.57-1.61.86-2.46.45-1.31,1-2.58,1.51-3.86h-.34c-.52,1.25-1,2.5-1.46,3.77Z" transform="translate(-136.5 -379.55)" style="fill:#0a4e7b;stroke:#0b4b7f;stroke-miterlimit:10;stroke-width:0.30000000000000004px;fill-rule:evenodd"/><path d="M163.3,426.7H163c-.89,2.52-1.71,4.87-2.48,7h.34c.77-2.16,1.57-4.51,2.48-7Z" transform="translate(-136.5 -379.55)" style="fill:#0a4e7b;stroke:#0b4b7f;stroke-miterlimit:10;stroke-width:0.30000000000000004px;fill-rule:evenodd"/><path d="M150.2,453.12v-.46c-3.21,3.24-7.4,5.87-13.41,8.45a1.34,1.34,0,0,0,.15.29c5.89-2.53,10.05-5.11,13.26-8.28Z" transform="translate(-136.5 -379.55)" style="fill:#0a4e7b;stroke:#0b4b7f;stroke-miterlimit:10;stroke-width:0.30000000000000004px;fill-rule:evenodd"/><path d="M182.57,394.92c-4.5,2.33-9.14,7-13.75,16.47h.37c4.47-9.18,9-13.8,13.38-16.1Z" transform="translate(-136.5 -379.55)" style="fill:#0a4e7b;stroke:#0b4b7f;stroke-miterlimit:10;stroke-width:0.30000000000000004px;fill-rule:evenodd"/><path d="M163.92,417.57c-.51,1.42-1,2.75-1.45,4.08h.32c.45-1.27.93-2.6,1.42-4,.25-.77.57-1.56.88-2.33h-.34c-.31.74-.57,1.48-.83,2.24Z" transform="translate(-136.5 -379.55)" style="fill:#0a4e7b;stroke:#0b4b7f;stroke-miterlimit:10;stroke-width:0.30000000000000004px;fill-rule:evenodd"/><path d="M161,426.7h-.34c-.91,2.55-1.74,4.87-2.56,7h.34c.82-2.16,1.65-4.48,2.56-7Z" transform="translate(-136.5 -379.55)" style="fill:#0a4e7b;stroke:#0b4b7f;stroke-miterlimit:10;stroke-width:0.30000000000000004px;fill-rule:evenodd"/><path d="M150.2,449.21v-.51c-3.24,3.88-7.37,6.83-13.55,9.63v.34c6.15-2.77,10.31-5.67,13.55-9.46Z" transform="translate(-136.5 -379.55)" style="fill:#0a4e7b;stroke:#0b4b7f;stroke-miterlimit:10;stroke-width:0.30000000000000004px;fill-rule:evenodd"/><path d="M182.57,392.66c-5.27,2.06-10.76,7-16.17,18.73h.34c5.33-11.45,10.65-16.3,15.83-18.39Z" transform="translate(-136.5 -379.55)" style="fill:#0a4e7b;stroke:#0b4b7f;stroke-miterlimit:10;stroke-width:0.30000000000000004px;fill-rule:evenodd"/><path d="M158.74,426.7h-.34c-.94,2.55-1.82,4.9-2.7,7H156c.88-2.16,1.76-4.48,2.7-7Z" transform="translate(-136.5 -379.55)" style="fill:#0a4e7b;stroke:#0b4b7f;stroke-miterlimit:10;stroke-width:0.30000000000000004px;fill-rule:evenodd"/><path d="M162.22,416l-.6,1.67c-.49,1.36-.94,2.67-1.4,3.94h.32c.45-1.24.88-2.52,1.36-3.85l.6-1.67c.09-.26.2-.54.29-.8h-.32a3,3,0,0,0-.25.71Z" transform="translate(-136.5 -379.55)" style="fill:#0a4e7b;stroke:#0b4b7f;stroke-miterlimit:10;stroke-width:0.30000000000000004px;fill-rule:evenodd"/><path d="M164.38,410.6c-.11.25-.23.54-.37.79h.34c.11-.22.2-.45.31-.68a66.79,66.79,0,0,1,3.62-7,1.56,1.56,0,0,1-.54.29,70.1,70.1,0,0,0-3.36,6.63Z" transform="translate(-136.5 -379.55)" style="fill:#0a4e7b;stroke:#0b4b7f;stroke-miterlimit:10;stroke-width:0.30000000000000004px;fill-rule:evenodd"/><path d="M182.57,390.56c-4.41,1.3-9,4.25-13.52,11.28v.28a1.27,1.27,0,0,1,0,.34c4.58-7.2,9.14-10.26,13.55-11.59Z" transform="translate(-136.5 -379.55)" style="fill:#0a4e7b;stroke:#0b4b7f;stroke-miterlimit:10;stroke-width:0.30000000000000004px;fill-rule:evenodd"/><path d="M150.2,444.9v-.51a29.53,29.53,0,0,1-3.39,4.11,35.09,35.09,0,0,1-10.16,7v.31c6.21-3,10.28-6.26,13.55-10.88Z" transform="translate(-136.5 -379.55)" style="fill:#0a4e7b;stroke:#0b4b7f;stroke-miterlimit:10;stroke-width:0.30000000000000004px;fill-rule:evenodd"/><path d="M156.41,426.7h-.34c-1,2.58-1.94,4.9-2.88,7h.34c.94-2.13,1.88-4.45,2.88-7Z" transform="translate(-136.5 -379.55)" style="fill:#0a4e7b;stroke:#0b4b7f;stroke-miterlimit:10;stroke-width:0.30000000000000004px;fill-rule:evenodd"/><path d="M162.67,409.07c-.34.76-.68,1.56-1,2.32H162c.28-.73.62-1.47.94-2.18.82-1.87,1.68-3.57,2.53-5.13h-.37c-.83,1.53-1.62,3.17-2.45,5Z" transform="translate(-136.5 -379.55)" style="fill:#0a4e7b;stroke:#0b4b7f;stroke-miterlimit:10;stroke-width:0.30000000000000004px;fill-rule:evenodd"/><path d="M145.25,446.74a33.29,33.29,0,0,0,4.95-6.46v-.63a31.94,31.94,0,0,1-5.18,6.89,32.37,32.37,0,0,1-8.37,6v.37a33.81,33.81,0,0,0,8.6-6.18Z" transform="translate(-136.5 -379.55)" style="fill:#0a4e7b;stroke:#0b4b7f;stroke-miterlimit:10;stroke-width:0.30000000000000004px;fill-rule:evenodd"/><path d="M158,421.65h.34c.71-2,1.45-4.08,2.25-6.32h-.35c-.76,2.24-1.53,4.34-2.24,6.32Z" transform="translate(-136.5 -379.55)" style="fill:#0a4e7b;stroke:#0b4b7f;stroke-miterlimit:10;stroke-width:0.30000000000000004px;fill-rule:evenodd"/><path d="M182.57,388.57c-4.38,1-8.94,3.23-13.52,9.3v.54c4.58-6.21,9.14-8.53,13.52-9.5Z" transform="translate(-136.5 -379.55)" style="fill:#0a4e7b;stroke:#0b4b7f;stroke-miterlimit:10;stroke-width:0.30000000000000004px;fill-rule:evenodd"/><path d="M160.93,407.59c-.54,1.25-1.05,2.53-1.56,3.8h.34c.48-1.25,1-2.46,1.54-3.68s1.14-2.5,1.73-3.63h-.37c-.54,1.1-1.11,2.27-1.68,3.51Z" transform="translate(-136.5 -379.55)" style="fill:#0a4e7b;stroke:#0b4b7f;stroke-miterlimit:10;stroke-width:0.30000000000000004px;fill-rule:evenodd"/><path d="M155.67,421.65H156c.74-1.95,1.51-4.08,2.31-6.32H158c-.79,2.24-1.56,4.37-2.3,6.32Z" transform="translate(-136.5 -379.55)" style="fill:#0a4e7b;stroke:#0b4b7f;stroke-miterlimit:10;stroke-width:0.30000000000000004px;fill-rule:evenodd"/><path d="M182.57,386.73a21.45,21.45,0,0,0-13.52,7.54v.48c4.58-5.27,9.16-7,13.52-7.71Z" transform="translate(-136.5 -379.55)" style="fill:#0a4e7b;stroke:#0b4b7f;stroke-miterlimit:10;stroke-width:0.30000000000000004px;fill-rule:evenodd"/><path d="M143.14,445.1a37.28,37.28,0,0,0,7.15-10,2.52,2.52,0,0,1,.28-.57c1.17-2.29,2.31-4.87,3.48-7.82h-.32c-3.47,8.56-6.49,14-10.79,18.2a31.83,31.83,0,0,1-6.29,4.67v.37a31.45,31.45,0,0,0,6.49-4.84Z" transform="translate(-136.5 -379.55)" style="fill:#0a4e7b;stroke:#0b4b7f;stroke-miterlimit:10;stroke-width:0.30000000000000004px;fill-rule:evenodd"/><path d="M160.51,404.08h-.34c-.32.65-.63,1.3-.91,2a54.81,54.81,0,0,0-2.14,5.3h.31c.66-1.76,1.34-3.51,2.11-5.19.31-.73.63-1.44,1-2.12Z" transform="translate(-136.5 -379.55)" style="fill:#0a4e7b;stroke:#0b4b7f;stroke-miterlimit:10;stroke-width:0.30000000000000004px;fill-rule:evenodd"/><path d="M153.33,421.65h.35c.76-1.95,1.53-4,2.36-6.32h-.31c-.83,2.24-1.63,4.37-2.4,6.32Z" transform="translate(-136.5 -379.55)" style="fill:#0a4e7b;stroke:#0b4b7f;stroke-miterlimit:10;stroke-width:0.30000000000000004px;fill-rule:evenodd"/><path d="M141,443.45c4.21-3.91,7.28-9,10.61-16.75h-.37c-4.29,10-8.31,15.65-14.63,19.81v.34a30.2,30.2,0,0,0,4.39-3.4Z" transform="translate(-136.5 -379.55)" style="fill:#0a4e7b;stroke:#0b4b7f;stroke-miterlimit:10;stroke-width:0.30000000000000004px;fill-rule:evenodd"/><path d="M182.57,385a21.7,21.7,0,0,0-13.52,6v.46a21.55,21.55,0,0,1,13.52-6.18Z" transform="translate(-136.5 -379.55)" style="fill:#0a4e7b;stroke:#0b4b7f;stroke-miterlimit:10;stroke-width:0.30000000000000004px;fill-rule:evenodd"/><path d="M151,421.65h.34c.77-1.95,1.6-4,2.45-6.32h-.34c-.86,2.27-1.65,4.37-2.45,6.32Z" transform="translate(-136.5 -379.55)" style="fill:#0a4e7b;stroke:#0b4b7f;stroke-miterlimit:10;stroke-width:0.30000000000000004px;fill-rule:evenodd"/><path d="M157.8,404.7l.29-.62h-.34c-.09.17-.15.34-.23.48-.77,1.73-1.48,3.54-2.11,5.33-.2.51-.37,1-.54,1.5h.34c.14-.45.32-.9.49-1.39.62-1.81,1.33-3.6,2.1-5.3Z" transform="translate(-136.5 -379.55)" style="fill:#0a4e7b;stroke:#0b4b7f;stroke-miterlimit:10;stroke-width:0.30000000000000004px;fill-rule:evenodd"/><path d="M149.18,426.7h-.34c-3.59,7.79-7.18,12.78-12.19,16.53v.39c5.18-3.8,8.83-8.87,12.53-16.92Z" transform="translate(-136.5 -379.55)" style="fill:#0a4e7b;stroke:#0b4b7f;stroke-miterlimit:10;stroke-width:0.30000000000000004px;fill-rule:evenodd"/><path d="M182.57,383.16c-4.33.42-8.88,1.19-13.52,4.85h0v.39c4.64-3.71,9.19-4.5,13.52-4.93Z" transform="translate(-136.5 -379.55)" style="fill:#0a4e7b;stroke:#0b4b7f;stroke-miterlimit:10;stroke-width:0.30000000000000004px;fill-rule:evenodd"/><path d="M155.73,404.08h-.35c-.59,1.42-1.16,2.83-1.68,4.28-.37,1.05-.74,2.07-1.08,3h.32c.34-.93.71-1.9,1.05-2.92.54-1.47,1.11-3,1.74-4.39Z" transform="translate(-136.5 -379.55)" style="fill:#0a4e7b;stroke:#0b4b7f;stroke-miterlimit:10;stroke-width:0.30000000000000004px;fill-rule:evenodd"/><path d="M148.61,421.65h.31c.83-1.92,1.68-4,2.56-6.32h-.34c-.85,2.27-1.71,4.37-2.53,6.32Z" transform="translate(-136.5 -379.55)" style="fill:#0a4e7b;stroke:#0b4b7f;stroke-miterlimit:10;stroke-width:0.30000000000000004px;fill-rule:evenodd"/><path d="M182.51,381.4h-.14c-4.64.48-9.59,1-14.63,4.79a1.73,1.73,0,0,1,.34.14c4.93-3.65,9.79-4.16,14.32-4.62a.34.34,0,0,0,.14,0c0-.09,0-.2,0-.29Z" transform="translate(-136.5 -379.55)" style="fill:#0a4e7b;stroke:#0b4b7f;stroke-miterlimit:10;stroke-width:0.30000000000000004px;fill-rule:evenodd"/><path d="M136.82,440.16c3.67-3.14,6.69-7.17,9.8-13.46h-.35c-2.93,5.92-5.92,10.06-9.62,13.24v.37c.06-.06.12-.09.17-.15Z" transform="translate(-136.5 -379.55)" style="fill:#0a4e7b;stroke:#0b4b7f;stroke-miterlimit:10;stroke-width:0.30000000000000004px;fill-rule:evenodd"/><path d="M149.18,415.33h-.34c-.94,2.3-1.83,4.4-2.71,6.32h.34c.89-1.95,1.8-4,2.71-6.32Z" transform="translate(-136.5 -379.55)" style="fill:#0a4e7b;stroke:#0b4b7f;stroke-miterlimit:10;stroke-width:0.30000000000000004px;fill-rule:evenodd"/><path d="M152,406.83c-.57,1.61-1.11,3.12-1.66,4.56h.35c.51-1.42,1.05-2.89,1.62-4.45.34-1,.68-1.93,1.08-2.86h-.34c-.37.91-.71,1.84-1.05,2.75Z" transform="translate(-136.5 -379.55)" style="fill:#0a4e7b;stroke:#0b4b7f;stroke-miterlimit:10;stroke-width:0.30000000000000004px;fill-rule:evenodd"/><path d="M144,426.7h-.34a43.1,43.1,0,0,1-7,9.64v.37a42.1,42.1,0,0,0,7.32-10Z" transform="translate(-136.5 -379.55)" style="fill:#0a4e7b;stroke:#0b4b7f;stroke-miterlimit:10;stroke-width:0.30000000000000004px;fill-rule:evenodd"/><path d="M180.58,379.79c-5.13.59-10.65,1.21-16.23,6.26h.48c5.41-4.76,10.82-5.39,15.78-5.95a8.27,8.27,0,0,0,.85-.12,1.75,1.75,0,0,0-.63-.22l-.25,0Z" transform="translate(-136.5 -379.55)" style="fill:#0a4e7b;stroke:#0b4b7f;stroke-miterlimit:10;stroke-width:0.30000000000000004px;fill-rule:evenodd"/><path d="M151.17,403.82a1,1,0,0,1-.26-.17l-.62,1.65c-.77,2.18-1.48,4.19-2.25,6.09h.34c.74-1.87,1.45-3.85,2.22-6,.2-.54.37-1.05.57-1.59Z" transform="translate(-136.5 -379.55)" style="fill:#0a4e7b;stroke:#0b4b7f;stroke-miterlimit:10;stroke-width:0.30000000000000004px;fill-rule:evenodd"/><path d="M146.81,415.33h-.31c-1,2.3-1.93,4.4-2.87,6.32H144c.94-1.92,1.88-4,2.81-6.32Z" transform="translate(-136.5 -379.55)" style="fill:#0a4e7b;stroke:#0b4b7f;stroke-miterlimit:10;stroke-width:0.30000000000000004px;fill-rule:evenodd"/><path d="M161.11,386.05h.45A22.42,22.42,0,0,1,172,379.7H170.9a22.85,22.85,0,0,0-9.79,6.35Z" transform="translate(-136.5 -379.55)" style="fill:#0a4e7b;stroke:#0b4b7f;stroke-miterlimit:10;stroke-width:0.30000000000000004px;fill-rule:evenodd"/><path d="M141.26,426.7h-.37a43.28,43.28,0,0,1-4.24,5.9v.48a41.81,41.81,0,0,0,4.61-6.38Z" transform="translate(-136.5 -379.55)" style="fill:#0a4e7b;stroke:#0b4b7f;stroke-miterlimit:10;stroke-width:0.30000000000000004px;fill-rule:evenodd"/><path d="M150.15,400.56v-.82c-.55,1.31-1.06,2.67-1.54,4-1,2.75-1.94,5.3-2.88,7.62h.34c.92-2.29,1.85-4.79,2.82-7.51.4-1.13.83-2.21,1.26-3.32Z" transform="translate(-136.5 -379.55)" style="fill:#0a4e7b;stroke:#0b4b7f;stroke-miterlimit:10;stroke-width:0.30000000000000004px;fill-rule:evenodd"/><path d="M141.38,421.65c1-1.92,2.05-4,3.07-6.37l-.31-.09c-1,2.35-2.08,4.51-3.13,6.46Z" transform="translate(-136.5 -379.55)" style="fill:#0a4e7b;stroke:#0b4b7f;stroke-miterlimit:10;stroke-width:0.30000000000000004px;fill-rule:evenodd"/><path d="M138.3,426.76a1.77,1.77,0,0,0-.51.19c-.37.51-.74,1-1.11,1.51,0,.14,0,.25,0,.39v.2c.57-.73,1.11-1.5,1.65-2.29Z" transform="translate(-136.5 -379.55)" style="fill:#0a4e7b;stroke:#0b4b7f;stroke-miterlimit:10;stroke-width:0.30000000000000004px;fill-rule:evenodd"/><path d="M158.06,386.05h.43a25.05,25.05,0,0,1,7.77-6.35h-.69a26.21,26.21,0,0,0-7.51,6.35Z" transform="translate(-136.5 -379.55)" style="fill:#0a4e7b;stroke:#0b4b7f;stroke-miterlimit:10;stroke-width:0.30000000000000004px;fill-rule:evenodd"/><path d="M142.91,413.26a2,2,0,0,1,.55-1.27c1.25-2.89,2.47-6.1,3.72-9.64.63-1.76,1.31-3.49,2-5.16.32-.68.63-1.36.92-2v-.71c-.4.82-.8,1.67-1.2,2.58-.74,1.67-1.42,3.43-2,5.19a114.05,114.05,0,0,1-8.51,19.33,1.39,1.39,0,0,0,.31.06,81.28,81.28,0,0,0,4.21-8.37Z" transform="translate(-136.5 -379.55)" style="fill:#0a4e7b;stroke:#0b4b7f;stroke-miterlimit:10;stroke-width:0.30000000000000004px;fill-rule:evenodd"/><path d="M155.18,386.05h.37A29.24,29.24,0,0,1,162,379.7h-.54a28.85,28.85,0,0,0-6.27,6.35Z" transform="translate(-136.5 -379.55)" style="fill:#0a4e7b;stroke:#0b4b7f;stroke-miterlimit:10;stroke-width:0.30000000000000004px;fill-rule:evenodd"/><path d="M145.51,400.82c.62-1.76,1.28-3.49,2-5.13.88-2,1.73-3.74,2.62-5.36v-.65c-1,1.76-1.94,3.71-2.91,5.87-.74,1.67-1.42,3.4-2.05,5.16a104.39,104.39,0,0,1-8.51,19,3,3,0,0,0,.11.43,107.15,107.15,0,0,0,8.72-19.36Z" transform="translate(-136.5 -379.55)" style="fill:#0a4e7b;stroke:#0b4b7f;stroke-miterlimit:10;stroke-width:0.30000000000000004px;fill-rule:evenodd"/><path d="M152.39,386.05h.37a33.89,33.89,0,0,1,5.56-6.35h-.49a33.66,33.66,0,0,0-5.44,6.35Z" transform="translate(-136.5 -379.55)" style="fill:#0a4e7b;stroke:#0b4b7f;stroke-miterlimit:10;stroke-width:0.30000000000000004px;fill-rule:evenodd"/><path d="M136.65,415.79a114.22,114.22,0,0,0,7.15-16.5c.62-1.76,1.28-3.46,2-5.1,3-6.75,6.06-11.31,9.16-14.49h-.45c-3.05,3.18-6.09,7.74-9,14.34-.74,1.68-1.42,3.38-2,5.13a131,131,0,0,1-5,12.22h.29a1,1,0,0,0-.29.06c-.63,1.27-1.25,2.52-1.88,3.66Z" transform="translate(-136.5 -379.55)" style="fill:#0a4e7b;stroke:#0b4b7f;stroke-miterlimit:10;stroke-width:0.30000000000000004px;fill-rule:evenodd"/><path d="M136.94,410.29a124,124,0,0,0,5.15-12.53c.63-1.76,1.31-3.46,2-5.08a51.53,51.53,0,0,1,7.77-13h-.43a53.16,53.16,0,0,0-7.62,12.84c-.74,1.65-1.4,3.35-2,5.1a124.62,124.62,0,0,1-5,12.28.94.94,0,0,0,.17.37Z" transform="translate(-136.5 -379.55)" style="fill:#0a4e7b;stroke:#0b4b7f;stroke-miterlimit:10;stroke-width:0.30000000000000004px;fill-rule:evenodd"/><path d="M136.65,405.61c1.28-2.84,2.54-5.95,3.73-9.38.63-1.73,1.28-3.43,2-5.05a56.47,56.47,0,0,1,6.55-11.48h-.4A59.25,59.25,0,0,0,142.09,391c-.71,1.64-1.37,3.34-2,5.07-1.14,3.21-2.28,6.1-3.45,8.73Z" transform="translate(-136.5 -379.55)" style="fill:#0a4e7b;stroke:#0b4b7f;stroke-miterlimit:10;stroke-width:0.30000000000000004px;fill-rule:evenodd"/><path d="M136.65,399.23v.82c.71-1.7,1.37-3.48,2-5.38.6-1.7,1.28-3.4,2-5a58.82,58.82,0,0,1,5.43-10h-.37a61.58,61.58,0,0,0-5.35,9.84c-.71,1.61-1.37,3.31-2,5s-1.17,3.18-1.77,4.65Z" transform="translate(-136.5 -379.55)" style="fill:#0a4e7b;stroke:#0b4b7f;stroke-miterlimit:10;stroke-width:0.30000000000000004px;fill-rule:evenodd"/><path d="M138.67,388c-.68,1.62-1.36,3.29-2,5,0,0,0,.09-.06.12v.93c.12-.31.23-.62.34-1,.63-1.7,1.28-3.38,2-5a62.28,62.28,0,0,1,4.44-8.48H143a65,65,0,0,0-4.36,8.33Z" transform="translate(-136.5 -379.55)" style="fill:#0a4e7b;stroke:#0b4b7f;stroke-miterlimit:10;stroke-width:0.30000000000000004px;fill-rule:evenodd"/><path d="M137,386.53c-.11.26-.19.48-.31.71v.82c.2-.48.4-.93.6-1.39a65.43,65.43,0,0,1,3.5-7h-.37a72.3,72.3,0,0,0-3.42,6.83Z" transform="translate(-136.5 -379.55)" style="fill:#0a4e7b;stroke:#0b4b7f;stroke-miterlimit:10;stroke-width:0.30000000000000004px;fill-rule:evenodd"/><path d="M136.65,382v.71c.49-1,1-2,1.48-2.9a1.72,1.72,0,0,0-.48.26c-.34.59-.66,1.25-1,1.93Z" transform="translate(-136.5 -379.55)" style="fill:#0a4e7b;stroke:#0b4b7f;stroke-miterlimit:10;stroke-width:0.30000000000000004px;fill-rule:evenodd"/></svg>